<svg xmlns="http://www.w3.org/2000/svg" xmlns:xlink="http://www.w3.org/1999/xlink" xmlns:serif="http://www.serif.com/" viewBox="0 0 32 40" version="1.1" xml:space="preserve" style="" x="0px" y="0px" fill-rule="evenodd" clip-rule="evenodd" stroke-linejoin="round" stroke-miterlimit="2"><g transform="matrix(1,0,0,1,-137.779,-33.6815)"><path d="M143.149,49.416C143.992,50.168 145,50.633 146.047,50.814C146.264,51.986 146.826,53.107 147.733,54.014L149.738,56.02C149.762,56.044 149.788,56.064 149.815,56.082C150.658,56.834 151.666,57.3 152.714,57.48C152.931,58.652 153.492,59.774 154.399,60.68L156.405,62.686C156.429,62.71 156.454,62.731 156.481,62.749C158.783,64.801 162.314,64.723 164.522,62.515C166.342,60.695 168.132,58.905 168.132,58.905C168.327,58.71 168.327,58.393 168.132,58.198C168.132,58.198 165.212,55.277 165.212,55.277C165.017,55.082 164.7,55.082 164.505,55.277C164.505,55.277 162.825,56.957 161.066,58.716C159.68,60.102 157.695,60.524 155.945,59.983C155.726,58.592 156.563,57.142 157.856,55.849C159.675,54.029 161.466,52.238 161.466,52.238C161.661,52.043 161.661,51.726 161.466,51.531C161.466,51.531 158.545,48.611 158.545,48.611C158.35,48.416 158.033,48.416 157.838,48.611C157.838,48.611 156.158,50.291 154.399,52.05C153.013,53.435 151.029,53.858 149.278,53.316C149.059,51.926 149.896,50.475 151.189,49.182C153.009,47.362 154.799,45.572 154.799,45.572C154.976,45.395 154.992,45.12 154.849,44.925C154.837,44.906 154.82,44.886 154.799,44.865C154.799,44.865 151.893,41.959 151.879,41.944C151.684,41.749 151.367,41.749 151.172,41.944L147.733,45.383C147.45,45.666 147.141,45.909 146.815,46.112C145.546,46.901 144.005,47.081 142.612,46.65C142.393,45.259 143.23,43.809 144.523,42.516C146.343,40.696 148.133,38.906 148.133,38.906C148.324,38.715 148.328,38.408 148.146,38.212C148.142,38.208 145.212,35.278 145.212,35.278C145.017,35.083 144.7,35.083 144.505,35.278C144.505,35.278 142.825,36.958 141.066,38.717C138.683,41.1 138.683,44.964 141.066,47.347L143.072,49.353C143.096,49.377 143.122,49.398 143.149,49.416ZM164.858,56.338L161.773,59.423C160.306,60.89 158.278,61.454 156.38,61.115C156.528,61.35 156.714,61.58 156.94,61.807C156.94,61.807 156.941,61.808 156.941,61.808C158.839,63.706 161.917,63.706 163.815,61.808L167.072,58.551L164.858,56.338ZM155.106,52.757C153.186,54.677 153.116,57.746 154.896,59.75C154.814,58.185 155.712,56.579 157.149,55.141L160.405,51.885L158.192,49.671L155.106,52.757ZM153.039,54.117C151.978,54.536 150.824,54.647 149.714,54.449C149.862,54.683 150.047,54.914 150.273,55.14C150.273,55.14 150.274,55.141 150.275,55.141C150.942,55.809 151.755,56.242 152.612,56.44C152.603,55.651 152.745,54.861 153.039,54.117ZM151.525,43.005L148.44,46.09C146.52,48.01 146.45,51.079 148.229,53.083C148.147,51.518 149.045,49.912 150.482,48.475L153.739,45.218L151.525,43.005ZM146.373,47.45C145.312,47.87 144.157,47.981 143.047,47.782C143.195,48.017 143.381,48.248 143.607,48.474C143.607,48.474 143.608,48.475 143.608,48.475C144.276,49.143 145.089,49.575 145.946,49.773C145.936,48.985 146.078,48.194 146.373,47.45ZM144.859,36.338L141.773,39.424C139.854,41.344 139.783,44.413 141.563,46.417C141.481,44.852 142.379,43.246 143.816,41.809L147.072,38.552L144.859,36.338Z"/></g><text x="0" y="47" fill="#000000" font-size="5px" font-weight="bold" font-family="'Helvetica Neue', Helvetica, Arial-Unicode, Arial, Sans-serif">Created by rendicon</text><text x="0" y="52" fill="#000000" font-size="5px" font-weight="bold" font-family="'Helvetica Neue', Helvetica, Arial-Unicode, Arial, Sans-serif">from the Noun Project</text></svg>