<?xml version="1.0" standalone="no"?><!DOCTYPE svg PUBLIC "-//W3C//DTD SVG 1.1//EN" "http://www.w3.org/Graphics/SVG/1.1/DTD/svg11.dtd"><svg t="1742374331891" class="icon" viewBox="0 0 1024 1024" version="1.1" xmlns="http://www.w3.org/2000/svg" p-id="1501" xmlns:xlink="http://www.w3.org/1999/xlink" width="200" height="200"><path d="M622.5893 648.636964q-171.311018 0-354.192953-2.099149-3.27672-0.051199-6.502241-0.716782-3.225521-0.716783-6.195049-1.996751-3.071925-1.279969-5.73426-3.123124-2.713534-1.843155-5.017477-4.198298-2.252745-2.355143-4.0959-5.119875-1.740758-2.713534-2.969528-5.785458-1.22877-3.020726-1.843155-6.246248-0.563186-3.225521-0.511987-6.502241 0-4.403093 1.177571-8.60139Q299.781181 379.894725 478.00403 378.819551l342.82683-1.535962q3.27672 0 6.502241 0.614385 3.225521 0.665584 6.246248 1.894354 3.071925 1.22877 5.785459 3.071925 2.713534 1.791956 5.068676 4.0959 2.303944 2.303944 4.0959 5.017477 1.894354 2.713534 3.174322 5.73426 1.22877 3.020726 1.894354 6.246248 0.665584 3.225521 0.665584 6.502241 0 2.252745-0.307193 4.556689-31.231238 233.619896-231.41835 233.619896z m0-66.558375q141.871736 0 165.371963-175.918905l33.023193 4.403092 0.153597 33.279188-342.724433 1.535963q-128.099273 0.767981-177.608464 176.891681l-32.050417-9.01098 0.40959-33.279188q182.523544 2.04795 353.373772 2.04795z" fill="#d4237a" p-id="1502"></path><path d="M841.771149 319.429001l-140.694165-242.016491q-1.63836-2.815931-3.788708-5.273471-2.201546-2.45754-4.812682-4.454291-2.559938-1.996751-5.529465-3.430317-2.969528-1.433565-6.14385-2.252745-3.123124-0.870379-6.399844-1.023975-3.27672-0.255994-6.55344 0.204795-3.225521 0.40959-6.348645 1.535963-3.071925 1.023975-5.939055 2.662335l-1.689559 1.023975q-82.941975 55.243451-106.339803 122.365012-24.5754 70.295884 16.537196 147.196407 68.913518 129.225645 152.162685 260.49924 1.740758 2.764733 4.044701 5.119875 2.252745 2.355143 4.91508 4.249496 2.713534 1.894354 5.683061 3.225521 3.020726 1.331168 6.195049 2.04795 3.225521 0.716783 6.502241 0.767982 3.27672 0.102398 6.502242-0.511988 3.225521-0.511988 6.246247-1.689559 3.071925-1.177571 5.836658-2.969527 2.04795-1.279969 3.839906-2.815931 160.405684-137.519843 75.825349-284.357858V319.4802z m-57.598594 33.330387q57.035408 98.967184-61.489699 200.596702l21.657072 25.292183 28.108113-17.868364q-81.918-129.123248-149.705145-256.147346-27.288934-51.19875-12.390097-93.949707 16.076408-46.027676 80.382037-88.829831l-18.43155-27.698524-28.773697 16.741992 140.694165 241.965292-0.051199-0.102397zM532.940289 686.47284L392.194925 444.507548q-1.689559-2.86713-3.839906-5.32467-2.150348-2.45754-4.761484-4.403093-2.611136-2.04795-5.580664-3.430316-2.918329-1.433565-6.092651-2.303944-3.174323-0.81918-6.451043-1.023975t-6.502241 0.204795q-3.27672 0.460789-6.348645 1.535963-3.071925 1.023975-5.939055 2.713534-2.559938 1.484764-4.863881 3.430316-165.115969 140.796563-87.293869 269.561419 62.974463 104.189456 150.524325 257.580911 1.63836 2.86713 3.788708 5.32467 2.150348 2.508739 4.710285 4.50549 2.559938 1.996751 5.529465 3.481515 2.918329 1.433565 6.092651 2.303944 3.174323 0.870379 6.451042 1.075174 3.27672 0.255994 6.502242-0.153597 3.27672-0.40959 6.348645-1.433565 3.123124-1.023975 5.990253-2.662335 2.713534-1.535963 5.119875-3.583912 161.941646-138.44142 77.361312-285.279435l-0.051199-0.153597z m-57.598594 33.381585q56.984209 98.915985-62.974463 201.415883l21.605873 25.292183 28.927294-16.485998q-87.959453-154.108238-151.394704-259.065675-48.536415-80.382038 73.521405-184.469096L363.523625 461.300738l-28.773698 16.690792 140.694165 242.016492-0.051198-0.102398z" fill="#d4237a" p-id="1503"></path></svg>